<?xml version="1.0" encoding="UTF-8"?> <svg xmlns="http://www.w3.org/2000/svg" width="653" height="386" viewBox="0 0 653 386" fill="none"> <path fill-rule="evenodd" clip-rule="evenodd" d="M512.754 194.334C269.306 194.334 121.535 80.7536 78.047 23.8908L78.6732 23.4119C122.008 80.0747 269.546 193.546 512.754 193.546V194.334Z" fill="url(#paint0_linear)"></path> <path fill-rule="evenodd" clip-rule="evenodd" d="M512.754 193.546C269.306 193.546 121.535 307.126 78.047 363.989L78.6732 364.468C122.008 307.805 269.546 194.334 512.754 194.334V193.546Z" fill="url(#paint1_linear)"></path> <path fill-rule="evenodd" clip-rule="evenodd" d="M244.943 167.519C179.871 152.403 138.705 134.257 120.712 122.13L121.153 121.477C139.031 133.527 180.092 151.645 245.121 166.751C310.14 181.854 399.098 193.94 512.754 193.94V194.728C399.043 194.728 310.025 182.637 244.943 167.519Z" fill="url(#paint2_linear)"></path> <path fill-rule="evenodd" clip-rule="evenodd" d="M244.943 220.755C179.871 235.87 138.705 254.017 120.712 266.143L121.153 266.797C139.031 254.747 180.092 236.628 245.121 221.523C310.14 206.42 399.098 194.334 512.754 194.334V193.546C399.043 193.546 310.025 205.637 244.943 220.755Z" fill="url(#paint3_linear)"></path> <path d="M44 195C199.308 193.751 354.655 194.026 510 194.026" stroke="url(#paint4_linear)" stroke-linecap="round"></path> <path d="M36.5767 19.7093C36.5767 8.82416 45.4009 0 56.286 0H82.3023C93.1875 0 102.012 8.82416 102.012 19.7093V45.7256C102.012 56.6108 93.1875 65.4349 82.3023 65.4349H56.286C45.4009 65.4349 36.5767 56.6108 36.5767 45.7256V19.7093Z" fill="url(#paint5_linear)"></path> <mask id="mask0" mask-type="alpha" maskUnits="userSpaceOnUse" x="44" y="6" width="53" height="53"> <path fill-rule="evenodd" clip-rule="evenodd" d="M44.2112 32.7174C44.2112 18.2619 55.9297 6.54346 70.3852 6.54346C84.8407 6.54346 96.5591 18.2619 96.5591 32.7174C96.5591 47.1729 84.8407 58.8914 70.3852 58.8914C55.9297 58.8914 44.2112 47.1729 44.2112 32.7174Z" fill="white"></path> </mask> <g mask="url(#mask0)"> <path fill-rule="evenodd" clip-rule="evenodd" d="M69.7323 15.2681C64.8749 15.2681 64.2653 15.2893 62.3575 15.3761C60.4534 15.4633 59.1537 15.7648 58.0165 16.2071C56.8402 16.6639 55.8423 17.275 54.8482 18.2695C53.8533 19.2636 53.2422 20.2615 52.7839 21.4375C52.3405 22.5751 52.0386 23.8751 51.9529 25.7785C51.8676 27.6862 51.8452 28.2962 51.8452 33.1536C51.8452 38.0111 51.8669 38.6188 51.9533 40.5266C52.0409 42.4307 52.3423 43.7304 52.7842 44.8676C53.2414 46.0439 53.8525 47.0418 54.847 48.0359C55.8408 49.0308 56.8387 49.6434 58.0143 50.1002C59.1522 50.5425 60.4523 50.844 62.356 50.9312C64.2638 51.018 64.873 51.0392 69.7301 51.0392C74.5879 51.0392 75.1956 51.018 77.1034 50.9312C79.0075 50.844 80.3087 50.5425 81.4466 50.1002C82.6226 49.6434 83.619 49.0308 84.6127 48.0359C85.6076 47.0418 86.2187 46.0439 86.677 44.868C87.1167 43.7304 87.4185 42.4303 87.508 40.527C87.5937 38.6192 87.616 38.0111 87.616 33.1536C87.616 28.2962 87.5937 27.6866 87.508 25.7788C87.4185 23.8748 87.1167 22.5751 86.677 21.4378C86.2187 20.2615 85.6076 19.2636 84.6127 18.2695C83.6179 17.2746 82.623 16.6635 81.4455 16.2071C80.3053 15.7648 79.0049 15.4633 77.1008 15.3761C75.193 15.2893 74.5856 15.2681 69.7267 15.2681H69.7323ZM69.1358 18.4909H69.1362L69.7323 18.4911C74.5078 18.4911 75.0738 18.5082 76.9596 18.5939C78.7034 18.6737 79.6499 18.9651 80.2803 19.2099C81.115 19.534 81.7101 19.9216 82.3357 20.5476C82.9617 21.1736 83.3492 21.7697 83.6741 22.6044C83.9189 23.2341 84.2107 24.1806 84.2901 25.9244C84.3758 27.8099 84.3944 28.3762 84.3944 33.1495C84.3944 37.9227 84.3758 38.489 84.2901 40.3745C84.2103 42.1183 83.9189 43.0648 83.6741 43.6945C83.3499 44.5292 82.9617 45.1235 82.3357 45.7491C81.7097 46.3751 81.1154 46.7626 80.2803 47.0868C79.6506 47.3327 78.7034 47.6234 76.9596 47.7031C75.0741 47.7888 74.5078 47.8074 69.7323 47.8074C64.9565 47.8074 64.3905 47.7888 62.505 47.7031C60.7612 47.6226 59.8148 47.3312 59.1839 47.0864C58.3493 46.7622 57.7531 46.3747 57.1271 45.7487C56.5011 45.1227 56.1136 44.528 55.7886 43.693C55.5438 43.0633 55.2521 42.1168 55.1727 40.373C55.087 38.4876 55.0699 37.9212 55.0699 33.145C55.0699 28.3688 55.087 27.8054 55.1727 25.9199C55.2524 24.1761 55.5438 23.2297 55.7886 22.5992C56.1128 21.7645 56.5011 21.1683 57.1271 20.5423C57.7531 19.9164 58.3493 19.5288 59.1839 19.2039C59.8144 18.958 60.7612 18.6673 62.505 18.5872C64.155 18.5127 64.7944 18.4904 68.1278 18.4866V18.4911C68.4393 18.4906 68.7743 18.4908 69.1358 18.4909ZM77.1332 23.6063C77.1332 22.421 78.0946 21.4608 79.2795 21.4608V21.4601C80.4644 21.4601 81.4258 22.4214 81.4258 23.6063C81.4258 24.7913 80.4644 25.7526 79.2795 25.7526C78.0946 25.7526 77.1332 24.7913 77.1332 23.6063ZM69.732 23.9688C64.6597 23.969 60.5473 28.0814 60.5473 33.1538C60.5473 38.2262 64.6599 42.3369 69.7323 42.3369C74.8048 42.3369 78.9158 38.2262 78.9158 33.1538C78.9158 28.0813 74.8044 23.9688 69.732 23.9688ZM75.6942 33.1537C75.6942 29.8609 73.0248 27.1918 69.7323 27.1918C66.4395 27.1918 63.7705 29.8609 63.7705 33.1537C63.7705 36.4461 66.4395 39.1155 69.7323 39.1155C73.0248 39.1155 75.6942 36.4461 75.6942 33.1537Z" fill="white"></path> </g> <path d="M72.0535 245.973C72.0535 235.087 80.8777 226.263 91.7628 226.263H117.779C128.664 226.263 137.488 235.087 137.488 245.973V271.989C137.488 282.874 128.664 291.698 117.779 291.698H91.7628C80.8777 291.698 72.0535 282.874 72.0535 271.989V245.973Z" fill="#010101"></path> <path fill-rule="evenodd" clip-rule="evenodd" d="M101.51 255.272V253.911C101.038 253.844 100.561 253.81 100.084 253.807C94.2493 253.807 89.5023 258.555 89.5023 264.39C89.5023 267.969 91.2912 271.138 94.0199 273.054C92.1928 271.1 91.177 268.524 91.1785 265.849C91.1785 260.097 95.7904 255.407 101.51 255.272Z" fill="#00F2EA"></path> <path fill-rule="evenodd" clip-rule="evenodd" d="M101.759 270.681C104.363 270.681 106.486 268.61 106.583 266.029L106.592 242.99H110.801C110.711 242.509 110.666 242.02 110.665 241.531H104.917L104.907 264.571C104.811 267.151 102.687 269.222 100.084 269.222C99.3028 269.222 98.5332 269.032 97.8422 268.667C98.2884 269.289 98.8764 269.797 99.5576 270.147C100.239 270.497 100.994 270.68 101.759 270.681ZM118.664 250.81V249.53C117.117 249.531 115.603 249.081 114.308 248.235C115.444 249.542 116.972 250.445 118.665 250.81" fill="#00F2EA"></path> <path fill-rule="evenodd" clip-rule="evenodd" d="M114.308 248.234C113.039 246.782 112.34 244.919 112.341 242.99H110.801C111 244.056 111.414 245.071 112.017 245.972C112.62 246.873 113.399 247.643 114.308 248.234ZM100.084 259.557C98.8026 259.558 97.5743 260.068 96.6683 260.974C95.7624 261.88 95.2528 263.108 95.2513 264.389C95.2522 265.27 95.4939 266.135 95.9503 266.889C96.4067 267.643 97.0605 268.257 97.841 268.667C97.2467 267.847 96.9267 266.861 96.9267 265.849C96.9279 264.567 97.4374 263.339 98.3434 262.433C99.2494 261.526 100.478 261.017 101.759 261.015C102.257 261.015 102.734 261.098 103.185 261.239V255.37C102.713 255.303 102.236 255.268 101.759 255.266C101.675 255.266 101.593 255.271 101.51 255.272V259.78C101.049 259.634 100.568 259.558 100.084 259.557Z" fill="#FF004F"></path> <path fill-rule="evenodd" clip-rule="evenodd" d="M118.664 250.81V255.278C115.683 255.278 112.921 254.324 110.665 252.706V264.389C110.665 270.224 105.919 274.971 100.084 274.971C97.8296 274.971 95.7387 274.26 94.0202 273.053C95.0082 274.118 96.2056 274.968 97.5374 275.549C98.8692 276.13 100.307 276.43 101.76 276.43C107.595 276.43 112.342 271.683 112.342 265.849V254.165C114.672 255.841 117.47 256.741 120.34 256.737V250.987C119.765 250.987 119.205 250.925 118.664 250.809" fill="#FF004F"></path> <path fill-rule="evenodd" clip-rule="evenodd" d="M110.665 264.389V252.706C112.995 254.382 115.794 255.281 118.664 255.278V250.81C116.972 250.445 115.443 249.541 114.309 248.234C113.4 247.643 112.62 246.873 112.017 245.972C111.414 245.071 111.001 244.056 110.801 242.99H106.592L106.583 266.03C106.487 268.61 104.363 270.681 101.76 270.681C100.994 270.68 100.239 270.497 99.5578 270.147C98.8767 269.797 98.2887 269.289 97.8424 268.667C97.0617 268.258 96.4078 267.643 95.9512 266.889C95.4946 266.135 95.2528 265.271 95.2519 264.389C95.2533 263.108 95.7629 261.88 96.6689 260.974C97.5748 260.068 98.8032 259.558 100.084 259.557C100.582 259.557 101.059 259.638 101.51 259.78V255.272C95.7906 255.407 91.1787 260.097 91.1787 265.849C91.1787 268.63 92.2593 271.162 94.0202 273.053C95.7953 274.303 97.9136 274.973 100.084 274.971C105.919 274.971 110.665 270.224 110.665 264.389Z" fill="white"></path> <path d="M72.0535 113.525C72.0535 102.64 80.8777 93.8162 91.7628 93.8162H117.779C128.664 93.8162 137.488 102.64 137.488 113.525V139.542C137.488 150.427 128.664 159.251 117.779 159.251H91.7628C80.8777 159.251 72.0535 150.427 72.0535 139.542V113.525Z" fill="#1877F2"></path> <path d="M126.582 126.533C126.582 114.486 116.818 104.722 104.771 104.722C92.7234 104.722 82.9592 114.486 82.9592 126.533C82.9592 137.422 90.9341 146.445 101.363 148.081V132.838H95.8246V126.533H101.363V121.728C101.363 116.262 104.618 113.242 109.602 113.242C111.987 113.242 114.484 113.668 114.484 113.668V119.036H111.732C109.022 119.036 108.179 120.718 108.179 122.444V126.533H114.228L113.261 132.838H108.179V148.081C118.608 146.445 126.582 137.422 126.582 126.533Z" fill="#1877F2"></path> <path d="M113.262 132.838L114.229 126.533H108.18V122.444C108.18 120.718 109.023 119.036 111.733 119.036H114.485V113.668C114.485 113.668 111.988 113.242 109.603 113.242C104.619 113.242 101.364 116.262 101.364 121.728V126.533H95.8256V132.838H101.364V148.081C102.476 148.256 103.613 148.345 104.772 148.345C105.931 148.345 107.068 148.256 108.18 148.081V132.838H113.262Z" fill="white"></path> <path d="M35.0001 339.788C35.0001 328.903 43.8242 320.079 54.7094 320.079H80.7257C91.6108 320.079 100.435 328.903 100.435 339.788V365.805C100.435 376.69 91.6108 385.514 80.7257 385.514H54.7094C43.8242 385.514 35.0001 376.69 35.0001 365.805V339.788Z" fill="#55ACEE"></path> <path d="M67.2142 346.162L67.2899 347.388L66.0291 347.238C61.4397 346.662 57.4303 344.71 54.0262 341.431L52.3619 339.804L51.9332 341.006C51.0254 343.684 51.6054 346.512 53.4966 348.414C54.5053 349.465 54.2783 349.616 52.5384 348.99C51.9332 348.79 51.4037 348.639 51.3532 348.715C51.1767 348.89 51.7819 351.167 52.261 352.069C52.9167 353.32 54.2531 354.546 55.7156 355.272L56.9512 355.848L55.4887 355.873C54.0766 355.873 54.0262 355.898 54.1775 356.424C54.6818 358.051 56.6739 359.778 58.8929 360.528L60.4563 361.054L59.0946 361.855C57.0773 363.006 54.707 363.657 52.3367 363.707C51.202 363.732 50.269 363.832 50.269 363.907C50.269 364.158 53.3453 365.559 55.1357 366.11C60.5067 367.737 66.8864 367.036 71.6775 364.258C75.0817 362.28 78.4859 358.351 80.0745 354.546C80.9318 352.519 81.7892 348.815 81.7892 347.038C81.7892 345.886 81.8648 345.736 83.2769 344.359C84.1091 343.559 84.8908 342.682 85.0421 342.432C85.2942 341.957 85.269 341.957 83.983 342.382C81.8396 343.133 81.537 343.033 82.5961 341.907C83.3778 341.106 84.3108 339.654 84.3108 339.228C84.3108 339.153 83.9326 339.278 83.5039 339.504C83.05 339.754 82.0414 340.129 81.2849 340.355L79.9232 340.78L78.6876 339.954C78.0068 339.504 77.0485 339.003 76.5442 338.853C75.2582 338.503 73.2913 338.553 72.1314 338.953C68.9794 340.079 66.9873 342.983 67.2142 346.162Z" fill="white"></path> <path d="M0 179.709C0 168.824 8.82416 160 19.7093 160H45.7256C56.6108 160 65.4349 168.824 65.4349 179.709V205.726C65.4349 216.611 56.6108 225.435 45.7256 225.435H19.7093C8.82416 225.435 0 216.611 0 205.726V179.709Z" fill="#0077B5"></path> <rect x="13" y="173" width="40" height="40" rx="5" fill="white"></rect> <path d="M51.3667 171H14.2533C13.4077 170.995 12.5937 171.322 11.9856 171.912C11.3775 172.501 11.0237 173.306 11 174.154V211.467C11.0191 212.316 11.3714 213.123 11.9805 213.714C12.5896 214.304 13.4063 214.63 14.2533 214.62H51.3667C52.2137 214.63 53.0304 214.304 53.6395 213.714C54.2486 213.123 54.6009 212.316 54.62 211.467V174.154C54.5963 173.306 54.2425 172.501 53.6344 171.912C53.0263 171.322 52.2123 170.995 51.3667 171V171ZM23.9224 208.204H17.5248V187.406H23.9224V208.204ZM20.7963 184.507C19.8141 184.508 18.8706 184.123 18.1677 183.435C17.4647 182.747 17.0578 181.81 17.0341 180.825C17.0163 180.325 17.1015 179.826 17.2842 179.36C17.467 178.895 17.7435 178.471 18.0965 178.117C18.4494 177.763 18.8713 177.486 19.3358 177.303C19.8003 177.12 20.2975 177.034 20.7963 177.052C21.7466 177.118 22.6364 177.544 23.2861 178.242C23.9359 178.941 24.2972 179.861 24.2972 180.816C24.2972 181.771 23.9359 182.691 23.2861 183.39C22.6364 184.088 21.7466 184.514 20.7963 184.58V184.507ZM48.2224 208.076H41.8975V197.905C41.8975 195.481 41.8975 192.327 38.5169 192.327C35.1364 192.327 34.6275 194.988 34.6275 197.668V207.967H28.1572V187.406H34.1913V190.14H34.3185C34.937 189.063 35.8388 188.177 36.9254 187.579C38.0121 186.981 39.2417 186.694 40.4798 186.749C47.0047 186.749 48.2224 191.124 48.2224 196.684V208.076Z" fill="#0077B5"></path> <circle cx="608.577" cy="195.576" r="43.0762" stroke="#2D2D2D"></circle> <path d="M604.25 182.04H594.5V180.96H604.25V182.04ZM604.25 194.46H594.5V195.54H604.25V194.46ZM594.5 209.04H604.25V207.96H594.5V209.04ZM629.54 181.5V195C629.54 195.298 629.299 195.54 629 195.54H623.54V199.5C623.54 199.798 623.299 200.04 623 200.04H593C592.702 200.04 592.46 199.798 592.46 199.5V195.54H587.54V207.96H592.46V204C592.46 203.701 592.702 203.46 593 203.46H623C623.299 203.46 623.54 203.701 623.54 204V213C623.54 213.298 623.299 213.54 623 213.54H593C592.702 213.54 592.46 213.298 592.46 213V209.04H587C586.702 209.04 586.46 208.798 586.46 208.5V195C586.46 194.701 586.702 194.46 587 194.46H592.46V190.5C592.46 190.201 592.702 189.96 593 189.96H623C623.299 189.96 623.54 190.201 623.54 190.5V194.46H628.459V182.04H623.54V186C623.54 186.298 623.299 186.54 623 186.54H593C592.702 186.54 592.46 186.298 592.46 186V177C592.46 176.701 592.702 176.46 593 176.46H623C623.299 176.46 623.54 176.701 623.54 177V180.96H629C629.299 180.96 629.54 181.201 629.54 181.5ZM622.46 177.54H593.54V185.46H622.46V177.54ZM593.54 212.46H622.46V204.54H593.54V212.46ZM622.46 191.04H593.54V198.96H622.46V191.04ZM620 181.5C620 181.086 619.664 180.75 619.25 180.75C618.836 180.75 618.5 181.086 618.5 181.5C618.5 181.914 618.836 182.25 619.25 182.25C619.664 182.25 620 181.914 620 181.5ZM620 195C620 194.586 619.664 194.25 619.25 194.25C618.836 194.25 618.5 194.586 618.5 195C618.5 195.414 618.836 195.75 619.25 195.75C619.664 195.75 620 195.414 620 195ZM620 208.5C620 208.086 619.664 207.75 619.25 207.75C618.836 207.75 618.5 208.086 618.5 208.5C618.5 208.914 618.836 209.25 619.25 209.25C619.664 209.25 620 208.914 620 208.5Z" fill="#49DB3C"></path> <rect x="562.869" y="185.199" width="7.92295" height="18.817" fill="#1B1B1B"></rect> <path d="M427.891 194.656L567.5 194.656" stroke="#49DB3C"></path> <path d="M419 166.143C419 153.914 428.914 144 441.143 144H496.943C509.172 144 519.086 153.914 519.086 166.143V221.943C519.086 234.172 509.172 244.086 496.943 244.086H441.143C428.914 244.086 419 234.172 419 221.943V166.143Z" fill="#2D2D2D"></path> <path d="M496.413 218.372H490.324C489.918 218.372 489.593 218.047 489.593 217.641V213.744C488.801 213.5 488.05 213.196 487.32 212.81L484.559 215.571C484.417 215.713 484.234 215.774 484.052 215.774C483.849 215.774 483.666 215.693 483.544 215.571L479.221 211.247C478.936 210.963 478.936 210.496 479.221 210.212L481.981 207.452C481.595 206.721 481.291 205.97 481.047 205.178H477.13C476.724 205.178 476.399 204.853 476.399 204.447V198.358C476.399 197.952 476.724 197.627 477.13 197.627H481.027C481.271 196.836 481.575 196.085 481.961 195.354L479.221 192.573C478.936 192.289 478.936 191.822 479.221 191.538L483.524 187.235C483.808 186.951 484.275 186.951 484.559 187.235L487.32 189.995C488.05 189.61 488.801 189.285 489.593 189.062V185.164C489.593 184.758 489.918 184.434 490.324 184.434H496.413C496.819 184.434 497.144 184.758 497.144 185.164V189.062C497.935 189.305 498.686 189.61 499.417 189.995L502.178 187.235C502.442 186.951 502.929 186.951 503.213 187.235L507.516 191.538C507.658 191.68 507.719 191.863 507.719 192.045C507.719 192.228 507.638 192.431 507.516 192.553L504.756 195.313C505.141 196.044 505.466 196.795 505.71 197.587H509.607C510.013 197.587 510.337 197.911 510.337 198.317V204.407C510.337 204.813 510.013 205.138 509.607 205.138H505.71C505.466 205.929 505.161 206.68 504.756 207.411L507.516 210.172C507.658 210.314 507.719 210.496 507.719 210.679C507.719 210.862 507.638 211.065 507.516 211.186L503.213 215.49C503.071 215.632 502.888 215.693 502.705 215.693C502.502 215.693 502.32 215.611 502.178 215.49L499.417 212.729C498.686 213.115 497.935 213.439 497.144 213.663V217.58C497.144 218.027 496.819 218.372 496.413 218.372ZM491.054 216.91H495.682V213.176C495.682 212.851 495.906 212.546 496.23 212.465C497.266 212.201 498.26 211.795 499.174 211.247C499.458 211.085 499.823 211.126 500.067 211.369L502.705 214.008L505.973 210.74L503.335 208.101C503.091 207.858 503.05 207.492 503.213 207.208C503.761 206.295 504.167 205.3 504.431 204.265C504.512 203.94 504.796 203.717 505.141 203.717H508.876V199.089H505.141C504.816 199.089 504.512 198.866 504.431 198.541C504.167 197.506 503.761 196.511 503.213 195.598C503.05 195.313 503.091 194.948 503.335 194.704L505.973 192.066L502.705 188.798L500.067 191.436C499.823 191.66 499.458 191.721 499.174 191.558C498.26 191.01 497.266 190.604 496.23 190.34C495.906 190.259 495.682 189.955 495.682 189.63V185.895H491.054V189.63C491.054 189.955 490.831 190.259 490.506 190.34C489.471 190.604 488.477 191.01 487.563 191.558C487.279 191.721 486.914 191.68 486.67 191.436L484.031 188.798L480.763 192.066L483.402 194.704C483.646 194.948 483.686 195.313 483.524 195.598C482.976 196.511 482.57 197.506 482.306 198.541C482.225 198.866 481.941 199.089 481.595 199.089H477.861V203.717H481.595C481.92 203.717 482.225 203.94 482.306 204.265C482.57 205.3 482.976 206.295 483.524 207.208C483.686 207.492 483.646 207.858 483.402 208.101L480.763 210.74L484.031 214.008L486.67 211.369C486.914 211.126 487.279 211.085 487.563 211.247C488.477 211.795 489.471 212.201 490.506 212.465C490.831 212.546 491.054 212.831 491.054 213.176V216.91ZM493.368 209.238C489.045 209.238 485.533 205.726 485.533 201.403C485.533 197.079 489.045 193.568 493.368 193.568C497.692 193.568 501.203 197.079 501.203 201.403C501.203 205.706 497.692 209.238 493.368 209.238ZM493.368 195.029C489.857 195.029 486.995 197.891 486.995 201.403C486.995 204.914 489.857 207.776 493.368 207.776C496.88 207.776 499.742 204.914 499.742 201.403C499.742 197.891 496.88 195.029 493.368 195.029Z" fill="#49DB3C"></path> <path d="M481.269 170C471.801 170 467.211 175.71 464.558 180.21C464.028 180.129 463.599 180.089 462.905 180.089C458.763 180.089 454.948 181.844 452.214 184.629H454.356C456.723 182.712 459.702 181.541 462.905 181.541C463.681 181.541 464.089 181.622 464.823 181.743C465.129 181.784 465.435 181.642 465.578 181.38C469.475 174.52 474.311 171.453 481.269 171.453C487.655 171.453 493.674 175.165 496.939 181.158L498.245 180.472C494.695 174.015 488.206 170 481.269 170ZM454.642 205.452H452.397C455.152 208.115 458.865 209.79 462.905 209.79H475.148V208.337H462.905C459.824 208.337 456.947 207.268 454.642 205.452Z" fill="#49DB3C"></path> <g clip-path="url(#clip0)"> <path d="M430.453 197.147C431.706 197.147 432.745 196.361 433.091 195.277H462.7V193.754H433.091C432.745 192.67 431.706 191.885 430.453 191.885C428.936 191.9 427.7 193.078 427.7 194.524C427.7 195.969 428.936 197.147 430.453 197.147ZM430.453 193.55C431.014 193.55 431.475 193.989 431.475 194.524C431.475 195.058 431.014 195.497 430.453 195.497C429.893 195.497 429.431 195.058 429.431 194.524C429.431 193.989 429.893 193.55 430.453 193.55Z" fill="#49DB3C"></path> <path d="M438.202 192.246C439.455 192.246 440.494 191.461 440.84 190.377H451.737L455.067 193.377H462.7V191.869H455.694L452.347 188.869H440.84C440.494 187.785 439.439 187 438.202 187C436.685 187 435.449 188.178 435.449 189.623C435.432 191.068 436.669 192.246 438.202 192.246ZM438.202 188.649C438.763 188.649 439.224 189.089 439.224 189.623C439.224 190.157 438.763 190.597 438.202 190.597C437.642 190.597 437.18 190.157 437.18 189.623C437.164 189.089 437.625 188.649 438.202 188.649Z" fill="#49DB3C"></path> <path d="M450.27 198.623H438.598C438.252 197.539 437.213 196.754 435.96 196.754C434.443 196.754 433.207 197.932 433.207 199.377C433.207 200.822 434.443 202 435.96 202C437.213 202 438.252 201.215 438.598 200.131H451.045L453.534 197.115H462.7V195.592H452.759L450.27 198.623ZM435.96 200.366C435.399 200.366 434.938 199.927 434.938 199.393C434.938 198.859 435.399 198.419 435.96 198.419C436.521 198.419 436.982 198.859 436.982 199.393C436.982 199.927 436.537 200.366 435.96 200.366Z" fill="#49DB3C"></path> </g> <defs> <linearGradient id="paint0_linear" x1="78.047" y1="194.334" x2="512.754" y2="194.334" gradientUnits="userSpaceOnUse"> <stop stop-color="#FF59F8"></stop> <stop offset="0.197917" stop-color="#AE72FF"></stop> <stop offset="0.40625" stop-color="#90E9ED"></stop> <stop offset="0.619792" stop-color="#5CD167"></stop> <stop offset="0.825321" stop-color="#FFEE00"></stop> </linearGradient> <linearGradient id="paint1_linear" x1="78.047" y1="193.546" x2="512.754" y2="193.546" gradientUnits="userSpaceOnUse"> <stop stop-color="#FF59F8"></stop> <stop offset="0.197917" stop-color="#AE72FF"></stop> <stop offset="0.40625" stop-color="#90E9ED"></stop> <stop offset="0.619792" stop-color="#5CD167"></stop> <stop offset="0.825321" stop-color="#FFEE00"></stop> </linearGradient> <linearGradient id="paint2_linear" x1="120.712" y1="194.728" x2="512.754" y2="194.728" gradientUnits="userSpaceOnUse"> <stop stop-color="#FF59F8"></stop> <stop offset="0.197917" stop-color="#AE72FF"></stop> <stop offset="0.40625" stop-color="#90E9ED"></stop> <stop offset="0.619792" stop-color="#5CD167"></stop> <stop offset="0.825321" stop-color="#FFEE00"></stop> </linearGradient> <linearGradient id="paint3_linear" x1="120.712" y1="193.546" x2="512.754" y2="193.546" gradientUnits="userSpaceOnUse"> <stop stop-color="#FF59F8"></stop> <stop offset="0.197917" stop-color="#AE72FF"></stop> <stop offset="0.40625" stop-color="#90E9ED"></stop> <stop offset="0.619792" stop-color="#5CD167"></stop> <stop offset="0.825321" stop-color="#FFEE00"></stop> </linearGradient> <linearGradient id="paint4_linear" x1="129.5" y1="194" x2="429.5" y2="194.084" gradientUnits="userSpaceOnUse"> <stop stop-color="#FF59F8"></stop> <stop offset="0.231647" stop-color="#AE72FF"></stop> <stop offset="0.447917" stop-color="#90E9ED"></stop> <stop offset="0.771787" stop-color="#5CD167"></stop> <stop offset="1" stop-color="#FFEE00"></stop> </linearGradient> <linearGradient id="paint5_linear" x1="110.191" y1="-3.81703" x2="44.7561" y2="65.4349" gradientUnits="userSpaceOnUse"> <stop offset="0.0998893" stop-color="#4960C6"></stop> <stop offset="0.467258" stop-color="#CA37AC"></stop> <stop offset="0.73234" stop-color="#F24A57"></stop> <stop offset="1" stop-color="#FAD849"></stop> </linearGradient> <clipPath id="clip0"> <rect width="35" height="20" fill="white" transform="translate(427.7 185)"></rect> </clipPath> </defs> </svg> 